/* XPM */ 
static const char *const about_xpm[] = {
"16 16 4 1",
" 	c None",
"!	c black",
"#	c #0E2CEF",
"$	c white",
"                ",
"                ",
"  ############  ",
" ##$$$$$$$$$$## ",
" #$$$$$##$$$$$# ",
" #$$$$$$$$$$$$# ",
" #$$$$###$$$$$# ",
" #$$$$$##$$$$$# ",
" #$$$$$##$$$$$# ",
" #$$$$$##$$$$$# ",
" #$$$$$##$$$$$# ",
" #$$$$####$$$$# ",
" ##$$$$$$$$$$## ",
"  ############  ",
"                ",
"                "};
