/* XPM */ 
static const char *const exit_xpm[] = {
"16 16 4 1",
" 	c None",
"!	c black",
"#	c #7F0000",
"$	c white",
"                ",
"                ",
" ##$$       ##$ ",
" ####$     ##$  ",
"  ####$   ##$   ",
"    ###$ ##$    ",
"     #####$     ",
"      ###$      ",
"      ###$      ",
"     #####$     ",
"    ###$ ##$    ",
"   ###$   ##$   ",
"  ###$     #$   ",
"  ###$      #$  ",
"   #$        #$ ",
"                "};
