/* XPM */ 
static const char *const help_xpm[] = {
"16 16 22 1",
" 	c None",
"!	c black",
"#	c #007F7F",
"$	c #660000",
"%	c #CC0000",
"&	c #BA3C00",
"'	c #9B3200",
"(	c #D80000",
")	c #FFFBF0",
"*	c #FFB4B4",
"+	c #720000",
",	c #7F0000",
"-	c #BFBFBF",
".	c #E57F7F",
"0	c #7F7F7F",
"1	c white",
"2	c #F2BFBF",
"3	c #723F3F",
"4	c #A5A5A5",
"5	c #E5E5E5",
"6	c #B2B2B2",
"7	c #003F3F",
"                ",
"  #########     ",
" $%&'''''&($    ",
" $&&')))*''+    ",
" $&&)*'')*',-   ",
" $&&'''')*',.0  ",
" $&&'''')*',.1# ",
" $&&')))*'',.1# ",
" $&&')*'''',22# ",
" $&&''''''',1.# ",
" $&&')*'''&$1.# ",
" $%$$$$$$$$31.# ",
" $$45555555551# ",
" $$45555555556# ",
"  7!!!!!!!!!!!  ",
"                "};
