/* XPM */
static const char *const options_xpm[] = {
"16 16 85 1",
" 	g None",
".	g #BABABA",
"+	g #767676",
"@	g #A5A5A5",
"#	g #5B5B5B",
"$	g #343434",
"%	g #A0A0A0",
"&	g #8E8E8E",
"*	g #9B9B9B",
"=	g #B1B1B1",
"-	g #9A9A9A",
";	g #868686",
">	g #B7B7B7",
",	g #AAAAAA",
"'	g #CCCCCC",
")	g #5E5E5E",
"!	g #B2B2B2",
"~	g #8D8D8D",
"{	g #A2A2A2",
"]	g #A8A8A8",
"^	g #D6D6D6",
"/	g #818181",
"(	g #7E7E7E",
"_	g #7A7A7A",
":	g #5D5D5D",
"<	g #BCBCBC",
"[	g #808080",
"}	g #7D7D7D",
"|	g #D9D9D9",
"1	g #A1A1A1",
"2	g #484848",
"3	g #BFBFBF",
"4	g #777777",
"5	g #C6C6C6",
"6	g #888888",
"7	g #949494",
"8	g #C8C8C8",
"9	g #8F8F8F",
"0	g #ACACAC",
"a	g #DBDBDB",
"b	g #2B2B2B",
"c	g #7B7B7B",
"d	g #727272",
"e	g #878787",
"f	g #656565",
"g	g #B8B8B8",
"h	g #999999",
"i	g #DDDDDD",
"j	g #CFCFCF",
"k	g #6C6C6C",
"l	g #929292",
"m	g #ABABAB",
"n	g #A7A7A7",
"o	g #A3A3A3",
"p	g #8B8B8B",
"q	g #9E9E9E",
"r	g #C5C5C5",
"s	g #717171",
"t	g #494949",
"u	g #A9A9A9",
"v	g #2D2D2D",
"w	g #575757",
"x	g #787878",
"y	g #CECECE",
"z	g #D7D7D7",
"A	g #DADADA",
"B	g #AEAEAE",
"C	g #313131",
"D	g #616161",
"E	g #C3C3C3",
"F	g #707070",
"G	g #626262",
"H	g #3F3F3F",
"I	g #3E3E3E",
"J	g #3B3B3B",
"K	g #E0E0E0",
"L	g #B4B4B4",
"M	g #BDBDBD",
"N	g #252525",
"O	g #909090",
"P	g #898989",
"Q	g #4B4B4B",
"R	g #A6A6A6",
"S	g #DCDCDC",
"T	g #414141",
"                ",
"                ",
"    .+@     #   ",
"   $%&*=   -;>  ",
"  ,,')!~  {]^/. ",
"  (,_:<[ $}|=12 ",
" $345@567~890a  ",
"  bcdef{_ghi    ",
" b bajkk=l1     ",
"   b m 4cnop1q  ",
" b rstuvwxyzA@B ",
"  0CDEF  c.GHxI ",
"  >C3~b^ /EJKLM ",
"  K  N0  OPQR   ",
"   S-,    ,TM   ",
"                "};
