/* XPM */ 
static const char *const vspec_xpm[] = {
"16 15 6 1",
" 	c None",
"!	c black",
"#	c white",
"$	c #3C00BA",
"%	c #808080",
"&	c #00FFFF",
"!!!!!!!!!       ",
"!#######!!      ",
"!##$$###! !     ",
"!#$##$##!!!!    ",
"!#$########!    ",
"!##$$###!!!!    ",
"!####$#!%  %!   ",
"!#$##$!%&& %%!  ",
"!##$$#! &  % !  ",
"!#####!    % !  ",
"!#####!%  &%%!  ",
"!######!%  %!%  ",
"!#######!!!!%!! ",
"!##########! !!!",
"!!!!!!!!!!!!  !!"};
