/* XPM */
static char *SA_xpm[] = {
/* columns rows colors chars-per-pixel */
"32 32 6 1",
"  c Black",
". c Blue",
"X c #00bf00",
"o c Red",
"O c Yellow",
"+ c Gray100",
/* pixels */
" ++++++++++++++++++++++++++++++ ",
" +++ ++++++++++++++++++++++++++ ",
" +o+ ++++++++++++++++++++++++++ ",
" +o+ ........++++++++++++++++++ ",
" +++ .........+++++++++++++++++ ",
" +++ ++++++++..++++++++++++++++ ",
" +++ ++++++++..++++++++++++++++ ",
" +++ ++++++++..++++++++++++++++ ",
" +++ ++++++++..++++++++++++++++ ",
" +++ ++++++++..++++++++++++++++ ",
" +++ ++++++++..++++++++++++++++ ",
" +++ ++++++++..++++++++++++++++ ",
" +o+ ++++++++..++++++++++++++++ ",
" +o+ ++++++++..++++++++++++++++ ",
" +++ ++++++++..++++++++++++++++ ",
" +++ ++++++++..++++++++++++++++ ",
" +++ +++++++++..+++++++++++++++ ",
" +++ +++++++++..+++++++++++++++ ",
" +++ +++++++++..+++++++++++++++ ",
" +++ +++++++++..+++++++++++++++ ",
" +++ +++++++++..+++++++++++++++ ",
" +++ +++++++++..++++..+++++++++ ",
" +++ +++++++++..+++....+++..+++ ",
" +++ +++++++++..++..+..++....++ ",
" +++ +++++++++..+..+++..+..+..+ ",
" +++ +++++++++...++++++...+++.. ",
" +o+                        +++ ",
" +o++++++++++++++++++++++++++++ ",
" +++oo++++++++oo++++++++++oo+++ ",
" ++++++++++++++++++++++++++++++ ",
" ++++++++++++++++++++++++++++++ ",
"                                "
};
