/* XPM */
static char *WhiteLEDOn_xpm[]={
"24 24 6 1",
"      c #FB00FB",
"0     c #808080",
"1     c #C0C0C0",
"2     c #A0A0A4",
"3     c #FFFFFF",
"4     c #FFFBF0",
"                        ",
"                        ",
"                        ",
"         00000          ",
"       000000100        ",
"     002013330010       ",
"     002133333010       ",
"    022333333333133     ",
"    000333333333344     ",
"   01033333333333114    ",
"   00033333333333333    ",
"   00133333333333333    ",
"   00133333333333333    ",
"   01013333333333314    ",
"    000333333333344     ",
"    011433333334144     ",
"     4413333313144      ",
"      34413333344       ",
"       441333334        ",
"         43333          ",
"                        ",
"                        ",
"                        ",
"                        "};
