/* XPM */
static char *YellowLEDOn_xpm[]={
"24 24 7 1",
"      c #FB00FB",
"0     c #808080",
"1     c #C0C0C0",
"2     c #A0A0A4",
"3     c #FFFF00",
"4     c #FFFFFF",
"5     c #FFFBF0",
"                        ",
"                        ",
"                        ",
"         00000          ",
"       000000100        ",
"     002013330010       ",
"     002133333010       ",
"    022334443334144     ",
"    000344433333455     ",
"   01033443333334115    ",
"   00034433333333444    ",
"   00133333333333444    ",
"   00133333333333444    ",
"   01013333333334415    ",
"    000333333333455     ",
"    011533333335155     ",
"     5514433314155      ",
"      45514444455       ",
"       551444445        ",
"         54444          ",
"                        ",
"                        ",
"                        ",
"                        "};
